<svg xmlns="http://www.w3.org/2000/svg" version="1.1" xmlns:xlink="http://www.w3.org/1999/xlink" xmlns:svgjs="http://svgjs.dev/svgjs" width="1440" height="1080" preserveAspectRatio="none" viewBox="0 0 1440 1080"><g mask="url(&quot;#SvgjsMask1090&quot;)" fill="none"><path d="M1210.427,1382.195C1326.076,1384.938,1434.903,1313.961,1484.208,1209.313C1528.057,1116.245,1477.365,1015.911,1424.62,927.581C1373.753,842.396,1309.613,753.255,1210.427,750.82C1108.232,748.311,1027.523,827.61,977.21,916.597C927.82,1003.951,913.308,1107.116,958.25,1196.84C1008.326,1296.813,1098.645,1379.544,1210.427,1382.195" fill="rgba(74, 85, 97, 0.71)" class="triangle-float3"></path><path d="M-128.88313975130725 205.9836600288269L-82.03774899890061 501.75381684737806 213.73240781965055 454.90842609497145 166.88701706724393 159.13826927642026z" fill="rgba(74, 85, 97, 0.71)" class="triangle-float3"></path><path d="M1308.9556921909884 576.2733624142334L1486.9226619911667 451.65954860780874 1362.308848184742 273.6925788076305 1184.3418783845639 398.3063926140552z" fill="rgba(74, 85, 97, 0.71)" class="triangle-float1"></path><path d="M1006.734,884.88C1062.9,883.849,1123.895,873.461,1152.062,824.858C1180.285,776.158,1158.874,718.086,1132.086,668.582C1103.472,615.704,1066.707,560.552,1006.734,556.297C940.813,551.62,878.772,590.768,846.26,648.304C814.245,704.96,815.332,776.513,851.863,830.368C884.791,878.912,948.086,885.956,1006.734,884.88" fill="rgba(74, 85, 97, 0.71)" class="triangle-float1"></path><path d="M1310.015,930.281C1419.907,933.089,1511.884,855.574,1566.354,760.09C1620.276,665.567,1639.365,547.467,1580.672,455.83C1525.338,369.437,1412.467,354.477,1310.015,359.87C1218.554,364.684,1132.008,403.587,1084.589,481.944C1035.431,563.175,1032.754,662.718,1075.406,747.546C1123.132,842.466,1203.807,927.567,1310.015,930.281" fill="rgba(74, 85, 97, 0.71)" class="triangle-float2"></path><path d="M260.916,580.735C342.542,581.831,422.574,549.259,466.106,480.201C512.604,406.437,520.116,312.753,477.958,236.426C434.458,157.67,350.855,111.11,260.916,108.707C166.394,106.181,67.413,140.889,22.809,224.264C-20.012,304.307,14.636,399.328,65.057,474.814C109.243,540.965,181.372,579.666,260.916,580.735" fill="rgba(74, 85, 97, 0.71)" class="triangle-float3"></path></g><defs><mask id="SvgjsMask1090"><rect width="1440" height="1080" fill="#ffffff"></rect></mask><style>
                @keyframes float1 {
                    0%{transform: translate(0, 0)}
                    50%{transform: translate(-10px, 0)}
                    100%{transform: translate(0, 0)}
                }

                .triangle-float1 {
                    animation: float1 5s infinite;
                }

                @keyframes float2 {
                    0%{transform: translate(0, 0)}
                    50%{transform: translate(-5px, -5px)}
                    100%{transform: translate(0, 0)}
                }

                .triangle-float2 {
                    animation: float2 4s infinite;
                }

                @keyframes float3 {
                    0%{transform: translate(0, 0)}
                    50%{transform: translate(0, -10px)}
                    100%{transform: translate(0, 0)}
                }

                .triangle-float3 {
                    animation: float3 6s infinite;
                }
            </style></defs></svg>